<svg xmlns="http://www.w3.org/2000/svg" width="1em" height="1em" viewBox="0 0 24 24" fill="none"><path d="M20.075 19C21.1544 19 22.0784 18.6208 22.847 17.8625C23.6157 17.1042 24 16.175 24 15.075C24 13.975 23.6208 13.0458 22.8625 12.2875C22.1042 11.5292 21.1833 11.15 20.1 11.15L21.275 10.25H23.375C23.5556 10.25 23.7049 10.1907 23.8229 10.0721C23.941 9.95348 24 9.80348 24 9.6221C24 9.4407 23.941 9.29167 23.8229 9.175C23.7049 9.05833 23.5556 9 23.375 9H19.9C19.7625 9 19.6281 9.01667 19.4969 9.05C19.3656 9.08333 19.2417 9.14167 19.125 9.225L17 10.5L13.275 9.1C13.1917 9.06667 13.1042 9.04167 13.0125 9.025C12.9208 9.00833 12.8333 9 12.75 9H9.525L11.475 6.5H12.95C13.1625 6.5 13.3406 6.42771 13.4844 6.28313C13.6281 6.13853 13.7 5.95936 13.7 5.74563C13.7 5.53188 13.6281 5.35417 13.4844 5.2125C13.3406 5.07083 13.1625 5 12.95 5H11.45C11.2125 5 10.9906 5.05 10.7844 5.15C10.5781 5.25 10.4083 5.39167 10.275 5.575L8.575 7.775L5.9 6.45C5.76667 6.38333 5.64167 6.38696 5.525 6.46087C5.40833 6.53479 5.35 6.6395 5.35 6.775V8.4C5.35 8.5 5.3875 8.5875 5.4625 8.6625C5.5375 8.7375 5.625 8.775 5.725 8.775H7.8L5.675 11.525C5.39677 11.4083 5.1139 11.3208 4.8264 11.2625C4.5389 11.2042 4.24677 11.175 3.95 11.175C2.85 11.175 1.91667 11.5542 1.15 12.3125C0.383333 13.0708 0 14 0 15.1C0 16.2 0.383333 17.125 1.15 17.875C1.91667 18.625 2.84583 19 3.9375 19C5.02917 19 5.95417 18.6208 6.7125 17.8625C7.47083 17.1042 7.85 16.1833 7.85 15.1C7.85 14.6 7.76667 14.125 7.6 13.675C7.43333 13.225 7.18333 12.8167 6.85 12.45L7.725 11.325L10.925 16.225C11.0618 16.4375 11.2422 16.6031 11.4661 16.7219C11.6899 16.8406 11.9262 16.9 12.175 16.9H13.55C13.7278 16.9 13.9056 16.8708 14.0833 16.8125C14.2611 16.7542 14.4167 16.6583 14.55 16.525L16.15 15.075C16.15 16.175 16.5292 17.1042 17.2875 17.8625C18.0458 18.6208 18.975 19 20.075 19ZM20.075 17.5C19.3917 17.5 18.8167 17.2626 18.35 16.7877C17.8833 16.3129 17.65 15.742 17.65 15.0752C17.65 14.4084 17.8833 13.8375 18.35 13.3625C18.8167 12.8875 19.3875 12.65 20.0625 12.65C20.7375 12.65 21.3125 12.8833 21.7875 13.35C22.2625 13.8167 22.5 14.3917 22.5 15.075C22.5 15.7583 22.2625 16.3333 21.7876 16.8C21.3127 17.2667 20.7419 17.5 20.075 17.5ZM3.94247 17.5C3.27079 17.5 2.69579 17.2667 2.21747 16.8C1.73916 16.3333 1.5 15.7642 1.5 15.0925C1.5 14.4208 1.73916 13.8458 2.21747 13.3675C2.69579 12.8892 3.27079 12.65 3.94247 12.65C4.61416 12.65 5.18333 12.8892 5.65 13.3675C6.11667 13.8458 6.35 14.4208 6.35 15.0925C6.35 15.7642 6.11667 16.3333 5.65 16.8C5.18333 17.2667 4.61416 17.5 3.94247 17.5ZM12.175 15.4L8.975 10.5H12.725L17.05 12.125L13.5678 15.4H12.175Z" fill="currentColor"></path></svg>