<svg width="1em" height="1em" viewBox="0 0 14 14" fill="none" xmlns="http://www.w3.org/2000/svg" class="rating_icon__K4Wws rating_full__7Cu7x"><path d="M6.643 11.697a.666.666 0 01.715 0l2.835 1.802a.667.667 0 001.008-.707l-.776-3.502a.667.667 0 01.202-.636L13.24 6.27a.667.667 0 00-.39-1.157l-3.375-.301a.667.667 0 01-.56-.415L7.619 1.176a.667.667 0 00-1.236 0L5.084 4.398a.667.667 0 01-.559.415l-3.375.301a.667.667 0 00-.39 1.157l2.613 2.383c.177.16.254.403.202.636L2.8 12.792a.667.667 0 001.009.707l2.835-1.802z" fill="#FF7100"></path></svg>