<svg xmlns="http://www.w3.org/2000/svg" width="52" height="52" viewBox="0 0 52 52" fill="none">
<g clip-path="url(#clip0_4335_298)">
<path d="M17.3603 22.3987L21.4304 22.8062C21.5833 22.8249 21.7373 22.8344 21.8913 22.8344H39.3057" stroke="#363636" stroke-width="1.2"/>
<path d="M28.0681 19.2976L27.8936 22.3276" stroke="#363636" stroke-width="1.2" stroke-linecap="square"/>
<path d="M41.5998 21.7454C39.7454 22.0417 39.0993 22.6442 39.3509 23.7247C39.6026 24.8053 40.7468 25.0909 42.7836 24.5817" stroke="#363636" stroke-width="1.2"/>
<path d="M21.453 29.3213H31.1762M39.8298 29.3213H40.519C41.3997 29.3213 42.1639 28.7132 42.3616 27.8549L42.973 26.1462C43.1379 25.4304 43.0187 24.6784 42.6403 24.0488L40.9213 21.1877C39.8957 19.4807 37.9629 18.9092 35.9715 18.9092H25.2653C24.2341 18.9092 23.2225 19.1902 22.3392 19.7221L17.1789 22.4089L11.0922 22.9545C9.6297 23.0856 8.50907 24.3112 8.50907 25.7796V27.4304C8.50907 28.4747 9.35566 29.3213 10.4 29.3213C11.629 29.3213 12.5507 29.3213 13.1652 29.3213H39.8298Z" stroke="#363636" stroke-width="1.2" stroke-linecap="round"/>
<path d="M34.3742 18.9092L34.981 22.8344H34.8608" stroke="#363636" stroke-width="1.2"/>
<path d="M15.9866 31.6483C17.5775 31.6483 18.8672 30.3784 18.8672 28.8119C18.8672 27.2455 17.5775 25.9756 15.9866 25.9756C14.3957 25.9756 13.106 27.2455 13.106 28.8119C13.106 30.3784 14.3957 31.6483 15.9866 31.6483Z" fill="white" stroke="#363636" stroke-width="1.2" stroke-linejoin="round"/>
<path d="M34.4573 31.6483C36.0482 31.6483 37.3379 30.3784 37.3379 28.8119C37.3379 27.2455 36.0482 25.9756 34.4573 25.9756C32.8664 25.9756 31.5767 27.2455 31.5767 28.8119C31.5767 30.3784 32.8664 31.6483 34.4573 31.6483Z" fill="white" stroke="#363636" stroke-width="1.2" stroke-linejoin="round"/>
<path d="M24.5693 25.23H26.4602" stroke="#363636" stroke-width="1.2" stroke-linecap="round" stroke-linejoin="round"/>
</g>
<defs>
<clipPath id="clip0_4335_298">
<rect width="52" height="52" fill="white"/>
</clipPath>
</defs>
</svg>