<svg xmlns="http://www.w3.org/2000/svg" width="55" height="55" viewBox="0 0 55 55" fill="none">
<g clip-path="url(#clip0_790_271)">
<path d="M10.5 31H44L45.5 26L43.5 23L41.5 24H23.5L18 23.5L13 24.5L10 25L9.5 27L9 30L10.5 31Z" fill="#FFAB00"/>
<path d="M18.3622 23.6909L22.6672 24.1219C22.8289 24.1418 22.9917 24.1517 23.1547 24.1517H41.5738" stroke="#363636" stroke-width="1.2"/>
<path d="M29.687 20.4109L29.5024 23.6157" stroke="#363636" stroke-width="1.2" stroke-linecap="square"/>
<path d="M44.0001 23C42.0388 23.3134 41.3553 23.9507 41.6215 25.0936C41.8877 26.2365 43.0979 26.5386 45.2522 26" stroke="#363636" stroke-width="1.2"/>
<path d="M22.6906 31.0129H32.9749M42.1277 31.0129H42.8566C43.7882 31.0129 44.5964 30.3696 44.8056 29.4618L45.4522 27.6546C45.6267 26.8974 45.5005 26.1021 45.1003 25.4361L43.2822 22.4099C42.1974 20.6045 40.1531 20 38.0468 20H26.7229C25.6323 20 24.5623 20.2973 23.628 20.8598L18.17 23.7016L11.7321 24.2787C10.1853 24.4174 8.99998 25.7137 8.99998 27.2668V29.0129C8.99998 30.1174 9.89542 31.0129 11 31.0129C12.2999 31.0129 13.2748 31.0129 13.9247 31.0129H42.1277Z" stroke="#363636" stroke-width="1.2" stroke-linecap="round"/>
<path d="M36.3578 20L36.9995 24.1516H36.8724" stroke="#363636" stroke-width="1.2"/>
<path d="M16.9086 33.4744C18.5914 33.4744 19.9555 32.1312 19.9555 30.4744C19.9555 28.8175 18.5914 27.4744 16.9086 27.4744C15.2259 27.4744 13.8618 28.8175 13.8618 30.4744C13.8618 32.1312 15.2259 33.4744 16.9086 33.4744Z" fill="white" stroke="#363636" stroke-width="1.2" stroke-linejoin="round"/>
<path d="M36.4453 33.4744C38.128 33.4744 39.4921 32.1312 39.4921 30.4744C39.4921 28.8175 38.128 27.4744 36.4453 27.4744C34.7626 27.4744 33.3984 28.8175 33.3984 30.4744C33.3984 32.1312 34.7626 33.4744 36.4453 33.4744Z" fill="white" stroke="#363636" stroke-width="1.2" stroke-linejoin="round"/>
<path d="M25.9868 26.6855H27.9868" stroke="#363636" stroke-width="1.2" stroke-linecap="round" stroke-linejoin="round"/>
</g>
<defs>
<clipPath id="clip0_790_271">
<rect width="55" height="55" fill="white"/>
</clipPath>
</defs>
</svg>