<svg xmlns="http://www.w3.org/2000/svg" width="52" height="52" viewBox="0 0 52 52" fill="none">
<g clip-path="url(#clip0_4335_296)">
<path d="M18.3621 28.3152H16.0729C15.5507 28.3152 15.1274 27.8919 15.1274 27.3697V26.0949C15.1274 25.4463 15.1609 24.226 15.7055 23.8738C16.0686 23.639 17.9367 23.263 21.3098 22.7456C23.2431 20.4545 23.8224 18.9092 26.8202 18.9092H32.0652C34.9462 18.9092 35.1356 19.8574 35.9274 21.4831L36.4869 23.5314C36.7409 24.0528 36.8729 24.6252 36.8729 25.2052V27.3697C36.8729 27.8919 36.4496 28.3152 35.9274 28.3152C35.4311 28.3152 35.0652 28.3152 34.83 28.3152" stroke="#363636" stroke-width="1.2" stroke-linejoin="round"/>
<path d="M29.7003 28.3152C28.6498 28.3152 27.7827 28.3152 25.6816 28.3152" stroke="#363636" stroke-width="1.2" stroke-linecap="round" stroke-linejoin="round"/>
<path d="M20.6021 31.2C21.921 31.2 22.9903 30.1472 22.9903 28.8486C22.9903 27.5499 21.921 26.4971 20.6021 26.4971C19.2831 26.4971 18.2139 27.5499 18.2139 28.8486C18.2139 30.1472 19.2831 31.2 20.6021 31.2Z" stroke="#363636" stroke-width="1.2" stroke-linejoin="round"/>
<path d="M32.0654 31.2C33.3844 31.2 34.4536 30.1472 34.4536 28.8486C34.4536 27.5499 33.3844 26.4971 32.0654 26.4971C30.7465 26.4971 29.6772 27.5499 29.6772 28.8486C29.6772 30.1472 30.7465 31.2 32.0654 31.2Z" stroke="#363636" stroke-width="1.2" stroke-linejoin="round"/>
<path d="M21.5103 22.9282L23.7104 23.6121H35.9131" stroke="#363636" stroke-width="1.2" stroke-linecap="square"/>
<path d="M30.4189 22.9282V19.5239" stroke="#363636" stroke-width="1.2" stroke-linecap="square"/>
<path d="M26.957 25.7502H27.9025" stroke="#363636" stroke-width="1.2" stroke-linecap="round" stroke-linejoin="round"/>
</g>
<defs>
<clipPath id="clip0_4335_296">
<rect width="52" height="52" fill="white"/>
</clipPath>
</defs>
</svg>