<svg xmlns="http://www.w3.org/2000/svg" width="52" height="52" viewBox="0 0 52 52" fill="none">
<g clip-path="url(#clip0_4335_300)">
<path d="M17.2197 28.8364H19.1106" stroke="#363636" stroke-width="1.2" stroke-linecap="round" stroke-linejoin="round"/>
<path d="M42.4478 26.2361V28.127C42.4478 28.6492 42.871 29.0724 43.3932 29.0724H45.2841" stroke="#363636" stroke-width="1.2"/>
<path d="M3.78174 30.0181L7.64972 29.2508C8.09233 29.163 8.41121 28.7746 8.41121 28.3234V27.1817" stroke="#363636" stroke-width="1.2"/>
<path d="M45.5835 32.6182H47.7455" stroke="#363636" stroke-width="1.2" stroke-linecap="round" stroke-linejoin="round"/>
<path d="M43.393 26.2362V16.0728C43.393 15.0285 42.5464 14.1819 41.5021 14.1819H23.2776C22.2333 14.1819 21.3867 15.0285 21.3867 16.0728V25.9855V33.5155" stroke="#363636" stroke-width="1.2"/>
<path d="M21.3868 18.5977H15.9453C14.7936 18.5977 13.7562 19.2941 13.3201 20.3602L12.133 23.2623C12.0865 23.3759 12.0626 23.4975 12.0626 23.6202V26H43.393L44.3043 26.5987C45.1026 27.1231 45.5834 28.0141 45.5834 28.9693V33.1076C45.5834 33.6298 45.1601 34.0531 44.6379 34.0531H43.0144M33.2462 34.0531H18.1652M8.13668 34.0531H4.72719C4.20503 34.0531 3.78174 33.6298 3.78174 33.1076V30.0895C3.78174 28.7954 4.65764 27.6654 5.91085 27.3427L12.0626 25.7587" stroke="#363636" stroke-width="1.2" stroke-linecap="round"/>
<path d="M12.02 36.8728C13.8476 36.8728 15.3291 35.3913 15.3291 33.5637C15.3291 31.7362 13.8476 30.2546 12.02 30.2546C10.1925 30.2546 8.71094 31.7362 8.71094 33.5637C8.71094 35.3913 10.1925 36.8728 12.02 36.8728Z" stroke="#363636" stroke-width="1.2" stroke-linejoin="round"/>
<path d="M39.438 36.8728C41.2656 36.8728 42.7471 35.3913 42.7471 33.5637C42.7471 31.7362 41.2656 30.2546 39.438 30.2546C37.6104 30.2546 36.1289 31.7362 36.1289 33.5637C36.1289 35.3913 37.6104 36.8728 39.438 36.8728Z" stroke="#363636" stroke-width="1.2" stroke-linejoin="round"/>
</g>
<defs>
<clipPath id="clip0_4335_300">
<rect width="52" height="52" fill="white"/>
</clipPath>
</defs>
</svg>