<svg xmlns="http://www.w3.org/2000/svg" width="55" height="55" viewBox="0 0 55 55" fill="none">
<g clip-path="url(#clip0_790_301)">
<path d="M5.5 36H48V30.5L47 28.5L44.5 27.5H23H12.5L8 28.5L4.5 30L4 32V35L5.5 36Z" fill="#FFAB00"/>
<path d="M18.2134 30.5H20.2134" stroke="#363636" stroke-width="1.2" stroke-linecap="round" stroke-linejoin="round"/>
<path d="M44.8965 27.7498V29.7498C44.8965 30.302 45.3442 30.7498 45.8965 30.7498H47.8965" stroke="#363636" stroke-width="1.2"/>
<path d="M4 31.7498L8.09113 30.9382C8.55928 30.8453 8.89655 30.4346 8.89655 29.9573V28.4254" stroke="#363636" stroke-width="1.2"/>
<path d="M48.2134 34.5H50.5001" stroke="#363636" stroke-width="1.2" stroke-linecap="round" stroke-linejoin="round"/>
<path d="M45.8965 27.7498V17C45.8965 15.8954 45.001 15 43.8965 15H24.6206C23.516 15 22.6206 15.8954 22.6206 17V27.4846V35.449" stroke="#363636" stroke-width="1.2"/>
<path d="M22.6207 19.6707H16.8653C15.6471 19.6707 14.5499 20.4073 14.0887 21.5349L12.8331 24.6044C12.7839 24.7246 12.7586 24.8532 12.7586 24.983V27.411L45.8966 27.5001L46.8604 28.1333C47.7048 28.6879 48.2133 29.6304 48.2133 30.6406V35.0178C48.2133 35.57 47.7656 36.0178 47.2133 36.0178H45.4961M35.1643 36.0178H19.2133M8.60619 36.0178H5C4.44772 36.0178 4 35.57 4 35.0178V31.8254C4 30.4567 4.92643 29.2615 6.25194 28.9202L12.7586 27.2448" stroke="#363636" stroke-width="1.2" stroke-linecap="round"/>
<path d="M12.7134 39C14.6464 39 16.2134 37.433 16.2134 35.5C16.2134 33.567 14.6464 32 12.7134 32C10.7804 32 9.21338 33.567 9.21338 35.5C9.21338 37.433 10.7804 39 12.7134 39Z" fill="white" stroke="#363636" stroke-width="1.2" stroke-linejoin="round"/>
<path d="M41.7134 39C43.6464 39 45.2134 37.433 45.2134 35.5C45.2134 33.567 43.6464 32 41.7134 32C39.7804 32 38.2134 33.567 38.2134 35.5C38.2134 37.433 39.7804 39 41.7134 39Z" fill="white" stroke="#363636" stroke-width="1.2" stroke-linejoin="round"/>
</g>
<defs>
<clipPath id="clip0_790_301">
<rect width="55" height="55" fill="white"/>
</clipPath>
</defs>
</svg>