<svg xmlns="http://www.w3.org/2000/svg" width="52" height="52" viewBox="0 0 52 52" fill="none">
<g clip-path="url(#clip0_4335_292)">
<path d="M11.4511 31.4519C10.7973 31.4519 9.81656 31.4519 8.50893 31.4519C7.98677 31.4519 7.56348 31.0286 7.56348 30.5064V28.6026C7.56348 27.4005 8.33236 26.3331 9.47259 25.9523C9.8172 24.7292 10.8874 23.8504 12.1542 23.7503L17.9017 23.2962L22.2121 19.5535C23.1243 18.9706 24.1842 18.6609 25.2667 18.6609H36.212C37.4141 18.6609 39.4534 18.3899 41.3474 19.8548C42.61 20.8314 43.5203 22.1854 44.0782 23.9169L44.546 29.4002C44.6348 30.4407 43.8633 31.3562 42.8227 31.445C42.7693 31.4496 42.7156 31.4519 42.662 31.4519C41.8937 31.4519 41.3176 31.4519 40.9334 31.4519M32.4276 31.4519H20.9185H32.4276Z" stroke="#363636" stroke-width="1.2" stroke-linecap="round"/>
<path d="M27.1162 16.8542V17.7997" stroke="#363636" stroke-width="1.2" stroke-linecap="square"/>
<path d="M36.5708 16.8542V17.7997" stroke="#363636" stroke-width="1.2" stroke-linecap="square"/>
<path d="M25.6021 16.5454H38.1967" stroke="#363636" stroke-width="1.2" stroke-linecap="round"/>
<path d="M30.0484 18.6609L28.9854 23.9169V31.4519" stroke="#363636" stroke-width="1.2"/>
<path d="M18.0303 23.3557L19.0513 24.0483C19.2079 24.1546 19.3928 24.2113 19.582 24.2113H38.8952C38.9709 24.2113 39.0463 24.2023 39.1198 24.1843L39.6318 24.059L43.3808 22.7656" stroke="#363636" stroke-width="1.2"/>
<path d="M37.7095 19.3794L38.6849 23.7838" stroke="#363636" stroke-width="1.2" stroke-linecap="square"/>
<path d="M8.70215 26.2789L12.9032 25.7169C13.9221 25.5807 14.6454 24.6555 14.5319 23.6338L14.511 23.4458" stroke="#363636" stroke-width="1.2"/>
<path d="M24.8643 27.2729H26.7552" stroke="#363636" stroke-width="1.2" stroke-linecap="round" stroke-linejoin="round"/>
<path d="M31.4824 27.2729H33.3733" stroke="#363636" stroke-width="1.2" stroke-linecap="round" stroke-linejoin="round"/>
<path d="M14.511 33.9886C16.1019 33.9886 17.3917 32.7188 17.3917 31.1523C17.3917 29.5858 16.1019 28.3159 14.511 28.3159C12.9201 28.3159 11.6304 29.5858 11.6304 31.1523C11.6304 32.7188 12.9201 33.9886 14.511 33.9886Z" stroke="#363636" stroke-width="1.2" stroke-linejoin="round"/>
<path d="M37.7093 33.9886C39.3002 33.9886 40.5899 32.7188 40.5899 31.1523C40.5899 29.5858 39.3002 28.3159 37.7093 28.3159C36.1183 28.3159 34.8286 29.5858 34.8286 31.1523C34.8286 32.7188 36.1183 33.9886 37.7093 33.9886Z" stroke="#363636" stroke-width="1.2" stroke-linejoin="round"/>
</g>
<defs>
<clipPath id="clip0_4335_292">
<rect width="52" height="52" fill="white"/>
</clipPath>
</defs>
</svg>