<svg xmlns="http://www.w3.org/2000/svg" width="55" height="55" viewBox="0 0 55 55" fill="none">
<g clip-path="url(#clip0_790_190)">
<path d="M8.5 33.3333H46L47 31.8333L46.5 26.3333L46 23.8333L40.5 25.8333H20.5L19 24.8333L12 25.3333L10.5 26.3333L9.5 27.8333L8.5 28.8333L8 32.3333L8.5 33.3333Z" fill="#FFAB00"/>
<path d="M34.2986 33.2664H22.1255M12.1119 33.2664C11.4204 33.2664 10.3831 33.2664 9 33.2664C8.44772 33.2664 8 32.8187 8 32.2664V30.2528C8 28.9813 8.81324 27.8523 10.0193 27.4496C10.3837 26.1559 11.5157 25.2264 12.8556 25.1205L18.9347 24.6402L23.4938 20.6816C24.4586 20.0651 25.5796 19.7374 26.7246 19.7374H38.3013C39.5727 19.7374 41.7297 19.4509 43.733 21.0003C45.0685 22.0332 46.0312 23.4654 46.6213 25.2967L47.1162 31.0964C47.2101 32.1969 46.394 33.1653 45.2934 33.2592C45.2369 33.264 45.1802 33.2664 45.1234 33.2664C44.3108 33.2664 43.7014 33.2664 43.2951 33.2664" stroke="#363636" stroke-width="1.2" stroke-linecap="round"/>
<path d="M28.6807 17.8267V18.8267" stroke="#363636" stroke-width="1.2" stroke-linecap="square"/>
<path d="M38.6807 17.8267V18.8267" stroke="#363636" stroke-width="1.2" stroke-linecap="square"/>
<path d="M27.0791 17.5H40.4004" stroke="#363636" stroke-width="1.2" stroke-linecap="round"/>
<path d="M31.7821 19.7375L30.6577 25.2968V33.2665" stroke="#363636" stroke-width="1.2"/>
<path d="M19.0703 24.7033L20.1502 25.4358C20.3159 25.5482 20.5115 25.6082 20.7116 25.6082H41.1389C41.219 25.6082 41.2988 25.5986 41.3766 25.5796L41.9181 25.4471L45.8833 24.0791" stroke="#363636" stroke-width="1.2"/>
<path d="M39.8848 20.4973L40.9165 25.1558" stroke="#363636" stroke-width="1.2" stroke-linecap="square"/>
<path d="M9.2041 27.7949L13.6476 27.2005C14.7252 27.0564 15.4903 26.0778 15.3702 24.9972L15.3481 24.7983" stroke="#363636" stroke-width="1.2"/>
<path d="M26.2988 28.8464H28.2988" stroke="#363636" stroke-width="1.2" stroke-linecap="round" stroke-linejoin="round"/>
<path d="M33.2988 28.8464H35.2988" stroke="#363636" stroke-width="1.2" stroke-linecap="round" stroke-linejoin="round"/>
<path d="M15.3481 35.9495C17.0308 35.9495 18.3949 34.6063 18.3949 32.9495C18.3949 31.2926 17.0308 29.9495 15.3481 29.9495C13.6654 29.9495 12.3013 31.2926 12.3013 32.9495C12.3013 34.6063 13.6654 35.9495 15.3481 35.9495Z" fill="white" stroke="#363636" stroke-width="1.2" stroke-linejoin="round"/>
<path d="M39.8847 35.9495C41.5674 35.9495 42.9316 34.6063 42.9316 32.9495C42.9316 31.2926 41.5674 29.9495 39.8847 29.9495C38.202 29.9495 36.8379 31.2926 36.8379 32.9495C36.8379 34.6063 38.202 35.9495 39.8847 35.9495Z" fill="white" stroke="#363636" stroke-width="1.2" stroke-linejoin="round"/>
</g>
<defs>
<clipPath id="clip0_790_190">
<rect width="55" height="55" fill="white"/>
</clipPath>
</defs>
</svg>