<svg xmlns="http://www.w3.org/2000/svg" width="52" height="52" viewBox="0 0 52 52" fill="none">
<path d="M17.1787 21.936L21.1192 23.1415C21.4778 23.2512 21.8506 23.307 22.2256 23.307H39.6043" stroke="#363636" stroke-width="1.2"/>
<path d="M28.2426 18.7729L27.8911 28.8363" stroke="#363636" stroke-width="1.2" stroke-linecap="square"/>
<path d="M40.1694 23.5547C40.2088 24.1278 40.3874 24.6919 40.7052 25.2471C41.0231 25.8023 41.9928 26.074 43.6143 26.0621" stroke="#363636" stroke-width="1.2"/>
<path d="M21.4528 29.794H31.1761M40.7751 29.794H41.4643C42.3451 29.794 43.1092 29.1859 43.3069 28.3275L43.6805 27.0607C43.8455 26.3448 44.0589 24.3036 43.6805 23.6739C43.4283 23.2541 42.0444 23.1018 39.5287 23.217C38.5031 21.51 36.3657 18.4114 34.3743 18.4114H25.355C24.3239 18.4114 23.3123 18.6924 22.4289 19.2243L17.1788 21.9361L11.092 22.4817C9.62957 22.6128 8.50894 23.8384 8.50894 25.3068V27.9031C8.50894 28.9474 9.35553 29.794 10.3999 29.794C11.6288 29.794 12.5506 29.794 13.165 29.794H40.7751Z" stroke="#363636" stroke-width="1.2" stroke-linecap="round"/>
<path d="M33.7675 17.9636L34.981 23.307H34.8608" stroke="#363636" stroke-width="1.2"/>
<path d="M15.9866 32.1212C17.5775 32.1212 18.8672 30.8513 18.8672 29.2849C18.8672 27.7184 17.5775 26.4485 15.9866 26.4485C14.3957 26.4485 13.106 27.7184 13.106 29.2849C13.106 30.8513 14.3957 32.1212 15.9866 32.1212Z" fill="white" stroke="#363636" stroke-width="1.2" stroke-linejoin="round"/>
<path d="M34.4573 32.1212C36.0482 32.1212 37.3379 30.8513 37.3379 29.2849C37.3379 27.7184 36.0482 26.4485 34.4573 26.4485C32.8664 26.4485 31.5767 27.7184 31.5767 29.2849C31.5767 30.8513 32.8664 32.1212 34.4573 32.1212Z" fill="white" stroke="#363636" stroke-width="1.2" stroke-linejoin="round"/>
<path d="M23.6235 25.7026H25.5144" stroke="#363636" stroke-width="1.2" stroke-linecap="round" stroke-linejoin="round"/>
<path d="M9.17627 25.2991L12.4 24.4546C12.8158 24.3457 13.1058 23.9699 13.1058 23.54V22.8003" stroke="#363636" stroke-width="1.2" stroke-linecap="round" stroke-linejoin="round"/>
</svg>