<svg xmlns="http://www.w3.org/2000/svg" width="55" height="55" viewBox="0 0 55 55" fill="none">
<g clip-path="url(#clip0_790_205)">
<path d="M10 31.5L45 31L46.5 28.5L46 24.5H43H39H23L18 23L12 23.5L10.5 24L9.5 25.5L9 26.5V30L10 31.5Z" fill="#FFAB00"/>
<path d="M18.1699 23.2017L22.3378 24.4767C22.717 24.5927 23.1114 24.6517 23.5079 24.6517H41.8893" stroke="#363636" stroke-width="1.2"/>
<path d="M29.8718 19.856L29.5 30.4999" stroke="#363636" stroke-width="1.2" stroke-linecap="square"/>
<path d="M42.4868 24.9136C42.5284 25.5197 42.7173 26.1164 43.0535 26.7037C43.3897 27.2909 44.4153 27.5782 46.1304 27.5657" stroke="#363636" stroke-width="1.2"/>
<path d="M22.6905 31.5129H32.9747M43.1276 31.5129H43.8565C44.7881 31.5129 45.5963 30.8697 45.8054 29.9619L46.2006 28.6219C46.375 27.8647 46.6008 25.7058 46.2006 25.0398C45.9338 24.5958 44.47 24.4347 41.8092 24.5565C40.7244 22.751 38.4637 19.4736 36.3574 19.4736H26.8178C25.7272 19.4736 24.6572 19.7709 23.7229 20.3334L18.1699 23.2017L11.732 23.7788C10.1851 23.9175 8.99986 25.2138 8.99986 26.7668V29.5129C8.99986 30.6175 9.89529 31.5129 10.9999 31.5129C12.2997 31.5129 13.2746 31.5129 13.9246 31.5129H43.1276Z" stroke="#363636" stroke-width="1.2" stroke-linecap="round"/>
<path d="M35.716 19L36.9995 24.6516H36.8724" stroke="#363636" stroke-width="1.2"/>
<path d="M16.9086 33.9744C18.5914 33.9744 19.9555 32.6312 19.9555 30.9744C19.9555 29.3175 18.5914 27.9744 16.9086 27.9744C15.2259 27.9744 13.8618 29.3175 13.8618 30.9744C13.8618 32.6312 15.2259 33.9744 16.9086 33.9744Z" fill="white" stroke="#363636" stroke-width="1.2" stroke-linejoin="round"/>
<path d="M36.4453 33.9744C38.128 33.9744 39.4921 32.6312 39.4921 30.9744C39.4921 29.3175 38.128 27.9744 36.4453 27.9744C34.7626 27.9744 33.3984 29.3175 33.3984 30.9744C33.3984 32.6312 34.7626 33.9744 36.4453 33.9744Z" fill="white" stroke="#363636" stroke-width="1.2" stroke-linejoin="round"/>
<path d="M24.9868 27.1855H26.9868" stroke="#363636" stroke-width="1.2" stroke-linecap="round" stroke-linejoin="round"/>
<path d="M9.70557 26.7587L13.1152 25.8655C13.5551 25.7503 13.8618 25.3528 13.8618 24.8982V24.1157" stroke="#363636" stroke-width="1.2" stroke-linecap="round" stroke-linejoin="round"/>
</g>
<defs>
<clipPath id="clip0_790_205">
<rect width="55" height="55" fill="white"/>
</clipPath>
</defs>
</svg>