<svg xmlns="http://www.w3.org/2000/svg" width="52" height="52" viewBox="0 0 52 52" fill="none">
<g clip-path="url(#clip0_4335_295)">
<path d="M13.8775 32.9332H11.3454C10.8232 32.9332 10.3999 32.5099 10.3999 31.9877V29.5549V28.2176C10.3999 27.3055 11.051 26.5233 11.9481 26.358L16.5595 25.508L18.9268 21.2642C19.5201 19.868 20.8903 18.9615 22.4074 18.9615L37.1884 18.9089C38.2328 18.9089 39.0794 19.7555 39.0794 20.7998V30.0838V31.9877C39.0794 32.5099 38.6561 32.9332 38.1339 32.9332M29.674 32.9332H23.6363H29.674Z" stroke="#363636" stroke-width="1.2" stroke-linecap="round" stroke-linejoin="round"/>
<path d="M17.1792 25.4485H38.2604" stroke="#363636" stroke-width="1.2" stroke-linecap="square"/>
<path d="M26.7905 18.9617V31.9354" stroke="#363636" stroke-width="1.2" stroke-linecap="square"/>
<path d="M25.8452 16.8081V18.4001" stroke="#363636" stroke-width="1.2" stroke-linecap="square"/>
<path d="M35.2998 16.8081V18.4001" stroke="#363636" stroke-width="1.2" stroke-linecap="square"/>
<path d="M24.1274 16.5454H36.7221" stroke="#363636" stroke-width="1.2" stroke-linecap="round"/>
<path fill-rule="evenodd" clip-rule="evenodd" d="M39.0796 22.7432H41.0175C41.5397 22.7432 41.963 23.1665 41.963 23.6886V28.7836C41.963 29.3057 41.5397 29.729 41.0175 29.729H39.0796V22.7432Z" stroke="#363636" stroke-width="1.2" stroke-linejoin="round"/>
<path d="M17.605 35.5596C19.4325 35.5596 20.9141 34.0781 20.9141 32.2505C20.9141 30.4229 19.4325 28.9414 17.605 28.9414C15.7774 28.9414 14.2959 30.4229 14.2959 32.2505C14.2959 34.0781 15.7774 35.5596 17.605 35.5596Z" stroke="#363636" stroke-width="1.2" stroke-linejoin="round"/>
<path d="M32.9829 35.5596C34.8105 35.5596 36.292 34.0781 36.292 32.2505C36.292 30.4229 34.8105 28.9414 32.9829 28.9414C31.1554 28.9414 29.6738 30.4229 29.6738 32.2505C29.6738 34.0781 31.1554 35.5596 32.9829 35.5596Z" stroke="#363636" stroke-width="1.2" stroke-linejoin="round"/>
<path d="M22.6909 27.8909H24.5818" stroke="#363636" stroke-width="1.2" stroke-linecap="round" stroke-linejoin="round"/>
<path d="M36.3999 25.0546V19.3818" stroke="#363636" stroke-width="1.2" stroke-linecap="square"/>
<path d="M11.0166 28.3637L14.3765 27.617L13.5395 26.2627" stroke="#363636" stroke-width="1.2" stroke-linecap="round" stroke-linejoin="round"/>
</g>
<defs>
<clipPath id="clip0_4335_295">
<rect width="52" height="52" fill="white"/>
</clipPath>
</defs>
</svg>