<svg xmlns="http://www.w3.org/2000/svg" width="52" height="52" viewBox="0 0 52 52" fill="none">
<g clip-path="url(#clip0_4335_297)">
<path d="M15.5112 22.1692L21.311 22.6383C21.4283 22.6478 21.546 22.6518 21.6636 22.6503L41.5425 22.3992" stroke="#363636" stroke-width="1.2"/>
<path d="M27.3885 17.7476L26.9483 22.3275L26.9458 28.8362" stroke="#363636" stroke-width="1.2" stroke-linecap="square"/>
<path d="M42.7008 21.6594C41.7287 21.9008 41.3685 22.5618 41.6201 23.6423C41.8718 24.7229 42.5748 25.3512 43.7294 25.5272" stroke="#363636" stroke-width="1.2"/>
<path d="M21.4533 29.3211H31.1766M39.8302 29.3211H40.5193C41.4001 29.3211 43.7935 28.3407 43.9912 27.4823L43.9188 26.146C44.0837 25.4302 43.9645 24.6782 43.5861 24.0485L42.8126 20.242C42.3094 19.4044 41.8153 18.6126 41.2074 18.0233C41.0562 17.8767 42.1524 17.616 41.9851 17.4969C41.4546 17.1189 39.5795 17.0181 38.8082 17.0181H25.2656C24.2345 17.0181 21.4083 17.9635 20.4486 18.7764L15.302 22.3275L11.0423 23.6423C9.60721 24.0485 8.50941 25.2565 8.50941 26.7248V27.4302C8.50941 28.4745 9.356 29.3211 10.4003 29.3211C11.6293 29.3211 12.551 29.3211 13.1655 29.3211H39.8302Z" stroke="#363636" stroke-width="1.2" stroke-linecap="round"/>
<path d="M34.8201 17.2358L36.0962 22.4109H35.9761" stroke="#363636" stroke-width="1.2"/>
<path d="M15.9866 31.6483C17.5775 31.6483 18.8672 30.3784 18.8672 28.8119C18.8672 27.2455 17.5775 25.9756 15.9866 25.9756C14.3957 25.9756 13.106 27.2455 13.106 28.8119C13.106 30.3784 14.3957 31.6483 15.9866 31.6483Z" fill="white" stroke="#363636" stroke-width="1.2" stroke-linejoin="round"/>
<path d="M34.4573 31.6483C36.0482 31.6483 37.3379 30.3784 37.3379 28.8119C37.3379 27.2455 36.0482 25.9756 34.4573 25.9756C32.8664 25.9756 31.5767 27.2455 31.5767 28.8119C31.5767 30.3784 32.8664 31.6483 34.4573 31.6483Z" fill="white" stroke="#363636" stroke-width="1.2" stroke-linejoin="round"/>
<path d="M22.6782 25.23H24.5691" stroke="#363636" stroke-width="1.2" stroke-linecap="round" stroke-linejoin="round"/>
<path d="M22.9212 42.0908C22.8612 42.0908 22.8112 42.0708 22.7712 42.0308C22.7312 41.9842 22.7112 41.9308 22.7112 41.8708C22.7112 41.8508 22.7179 41.8208 22.7312 41.7808L25.1412 36.2808H22.0012C21.9345 36.2808 21.8779 36.2575 21.8312 36.2108C21.7845 36.1642 21.7612 36.1075 21.7612 36.0408V35.3408C21.7612 35.2675 21.7812 35.2075 21.8212 35.1608C21.8679 35.1142 21.9279 35.0908 22.0012 35.0908H26.3912C26.4645 35.0908 26.5212 35.1142 26.5612 35.1608C26.6079 35.2075 26.6312 35.2675 26.6312 35.3408V35.9608C26.6312 36.0942 26.6012 36.2375 26.5412 36.3908L24.1512 41.8508C24.0779 42.0108 23.9712 42.0908 23.8312 42.0908H22.9212ZM29.3977 41.7608C29.331 41.7608 29.2743 41.7375 29.2277 41.6908C29.181 41.6442 29.1577 41.5875 29.1577 41.5208V39.5708H27.2377C27.171 39.5708 27.1143 39.5475 27.0677 39.5008C27.021 39.4542 26.9977 39.3942 26.9977 39.3208V38.8008C26.9977 38.7275 27.021 38.6708 27.0677 38.6308C27.1143 38.5842 27.171 38.5608 27.2377 38.5608H29.1577V36.6608C29.1577 36.5875 29.181 36.5308 29.2277 36.4908C29.2743 36.4442 29.331 36.4208 29.3977 36.4208H29.9777C30.051 36.4208 30.1077 36.4442 30.1477 36.4908C30.1943 36.5308 30.2177 36.5875 30.2177 36.6608V38.5608H32.1377C32.211 38.5608 32.2677 38.5842 32.3077 38.6308C32.3543 38.6708 32.3777 38.7275 32.3777 38.8008V39.3208C32.3777 39.3942 32.3543 39.4542 32.3077 39.5008C32.261 39.5475 32.2043 39.5708 32.1377 39.5708H30.2177V41.5208C30.2177 41.5875 30.1943 41.6442 30.1477 41.6908C30.1077 41.7375 30.051 41.7608 29.9777 41.7608H29.3977Z" fill="#363636"/>
</g>
<defs>
<clipPath id="clip0_4335_297">
<rect width="52" height="52" fill="white"/>
</clipPath>
</defs>
</svg>