<svg xmlns="http://www.w3.org/2000/svg" width="55" height="55" viewBox="0 0 55 55" fill="none">
<g clip-path="url(#clip0_790_258)">
<path d="M10 30.5H45L46.5 29L46 23.5H43H39H23H17L12 25L10.5 25.5L9.5 27L9 28V29L10 30.5Z" fill="#FFAB00"/>
<path d="M16.4058 23.4482L22.5401 23.9444C22.6642 23.9545 22.7886 23.9587 22.9131 23.9571L43.9388 23.6915" stroke="#363636" stroke-width="1.2"/>
<path d="M28.9682 18.7717L28.5026 23.6159L28.5 30.5001" stroke="#363636" stroke-width="1.2" stroke-linecap="square"/>
<path d="M45.1641 22.9092C44.1359 23.1645 43.7549 23.8636 44.0211 25.0065C44.2872 26.1494 45.0309 26.8139 46.252 27.0001" stroke="#363636" stroke-width="1.2"/>
<path d="M22.6906 31.0129H32.9749M42.1277 31.0129H42.8566C43.7882 31.0129 46.3197 29.9758 46.5288 29.068L46.4522 27.6546C46.6267 26.8974 46.5005 26.1021 46.1003 25.4361L45.2822 21.4099C44.7499 20.5241 44.2274 19.6866 43.5844 19.0633C43.4245 18.9082 44.5839 18.6324 44.407 18.5064C43.8458 18.1067 41.8625 18 41.0468 18H26.7229C25.6323 18 22.6431 19 21.628 19.8598L16.1844 23.6158L11.679 25.0064C10.1611 25.4361 8.99998 26.7137 8.99998 28.2668V29.0129C8.99998 30.1174 9.89542 31.0129 11 31.0129C12.2999 31.0129 13.2748 31.0129 13.9247 31.0129H42.1277Z" stroke="#363636" stroke-width="1.2" stroke-linecap="round"/>
<path d="M36.829 18.2302L38.1787 23.7039H38.0516" stroke="#363636" stroke-width="1.2"/>
<path d="M16.9086 33.4744C18.5914 33.4744 19.9555 32.1312 19.9555 30.4744C19.9555 28.8175 18.5914 27.4744 16.9086 27.4744C15.2259 27.4744 13.8618 28.8175 13.8618 30.4744C13.8618 32.1312 15.2259 33.4744 16.9086 33.4744Z" fill="white" stroke="#363636" stroke-width="1.2" stroke-linejoin="round"/>
<path d="M36.4453 33.4744C38.128 33.4744 39.4921 32.1312 39.4921 30.4744C39.4921 28.8175 38.128 27.4744 36.4453 27.4744C34.7626 27.4744 33.3984 28.8175 33.3984 30.4744C33.3984 32.1312 34.7626 33.4744 36.4453 33.4744Z" fill="white" stroke="#363636" stroke-width="1.2" stroke-linejoin="round"/>
<path d="M23.9868 26.6855H25.9868" stroke="#363636" stroke-width="1.2" stroke-linecap="round" stroke-linejoin="round"/>
<path d="M24.16 44C24.1 44 24.05 43.98 24.01 43.94C23.97 43.8933 23.95 43.84 23.95 43.78C23.95 43.7533 23.9566 43.7233 23.97 43.69L26.38 38.19H23.24C23.1666 38.19 23.1066 38.1667 23.06 38.12C23.02 38.0733 23 38.0167 23 37.95V37.25C23 37.1767 23.02 37.1167 23.06 37.07C23.1066 37.0233 23.1666 37 23.24 37H27.63C27.7033 37 27.76 37.0233 27.8 37.07C27.8466 37.1167 27.87 37.1767 27.87 37.25V37.87C27.87 37.9633 27.86 38.0433 27.84 38.11C27.8266 38.17 27.8066 38.2333 27.78 38.3L25.39 43.76C25.37 43.8067 25.3333 43.86 25.28 43.92C25.2333 43.9733 25.1633 44 25.07 44H24.16ZM30.6364 43.67C30.5698 43.67 30.5131 43.6467 30.4664 43.6C30.4198 43.5533 30.3964 43.4967 30.3964 43.43V41.48H28.4764C28.4098 41.48 28.3531 41.4567 28.3064 41.41C28.2598 41.3633 28.2364 41.3033 28.2364 41.23V40.71C28.2364 40.6367 28.2598 40.58 28.3064 40.54C28.3531 40.4933 28.4098 40.47 28.4764 40.47H30.3964V38.57C30.3964 38.5033 30.4198 38.4467 30.4664 38.4C30.5131 38.3533 30.5698 38.33 30.6364 38.33H31.2164C31.2898 38.33 31.3464 38.3533 31.3864 38.4C31.4331 38.4467 31.4564 38.5033 31.4564 38.57V40.47H33.3764C33.4431 40.47 33.4998 40.4933 33.5464 40.54C33.5931 40.58 33.6164 40.6367 33.6164 40.71V41.23C33.6164 41.3033 33.5931 41.3633 33.5464 41.41C33.4998 41.4567 33.4431 41.48 33.3764 41.48H31.4564V43.43C31.4564 43.4967 31.4331 43.5533 31.3864 43.6C31.3464 43.6467 31.2898 43.67 31.2164 43.67H30.6364Z" fill="#363636"/>
</g>
<defs>
<clipPath id="clip0_790_258">
<rect width="55" height="55" fill="white"/>
</clipPath>
</defs>
</svg>