<svg xmlns="http://www.w3.org/2000/svg" width="55" height="55" viewBox="0 0 55 55" fill="none">
<g clip-path="url(#clip0_790_282)">
<path d="M10.316 31.5248H43.816L47.2777 29.591L46.5595 25L41.4996 24H23.4996L17.9996 23.5L12.8575 25L8.4928 27.0496L6.89058 30.917L10.316 31.5248Z" fill="#FFAB00"/>
<path d="M12.9535 31.5425C9.04562 31.461 7.47891 31.2223 7 31.1837C7 30.4157 7.43116 29.2596 8.29347 27.7155C8.6261 27.1199 9.15179 26.6554 9.78385 26.3987C13.3765 24.9396 17.0421 24.0531 20.7807 23.7391C24.8519 23.3972 31.5807 23.3158 40.967 23.495L46.6282 24.893L47.2239 29.0787C47.2841 29.5017 47.0689 29.9162 46.6883 30.1104L45.2421 30.7396M33.8991 31.6202C26.1117 31.489 23.4608 31.6185 19.28 31.5425L33.8991 31.6202Z" stroke="#363636" stroke-width="1.2" stroke-linecap="round" stroke-linejoin="round"/>
<path d="M22.1655 31.0812C22.1655 31.0812 21.7735 29.6547 20.9893 26.8017L22.022 23.4949L28.5198 20C33.5155 20 37.6612 21.165 40.957 23.4949" stroke="#363636" stroke-width="1.2" stroke-linejoin="round"/>
<path d="M45.9108 24.2519V21.3979H44.5737" stroke="#363636" stroke-width="1.2" stroke-linecap="round" stroke-linejoin="round"/>
<path d="M33.8247 20.8018L34.8247 23.8018" stroke="#363636" stroke-width="1.2" stroke-linejoin="round"/>
<path d="M16.2334 33.2761C17.9161 33.2761 19.2802 31.933 19.2802 30.2761C19.2802 28.6193 17.9161 27.2761 16.2334 27.2761C14.5506 27.2761 13.1865 28.6193 13.1865 30.2761C13.1865 31.933 14.5506 33.2761 16.2334 33.2761Z" fill="white" stroke="#363636" stroke-width="1.2" stroke-linejoin="round"/>
<path d="M39.2334 33.2761C40.9161 33.2761 42.2802 31.933 42.2802 30.2761C42.2802 28.6193 40.9161 27.2761 39.2334 27.2761C37.5506 27.2761 36.1865 28.6193 36.1865 30.2761C36.1865 31.933 37.5506 33.2761 39.2334 33.2761Z" stroke="#363636" stroke-width="1.2" stroke-linejoin="round"/>
<path d="M29.8247 26.8018H33.8247" stroke="#363636" stroke-width="1.2" stroke-linecap="round" stroke-linejoin="round"/>
<path d="M29.8247 28.8018H33.8247" stroke="#363636" stroke-width="1.2" stroke-linecap="round" stroke-linejoin="round"/>
<path d="M12.9535 31.5425C9.04562 31.461 7.47891 31.2223 7 31.1837C7 30.4157 7.43116 29.2596 8.29347 27.7155C8.6261 27.1199 9.15179 26.6554 9.78385 26.3987C13.3765 24.9396 17.0421 24.0531 20.7807 23.7391C24.8519 23.3972 31.5807 23.3158 40.967 23.495L46.6282 24.893L47.2239 29.0787C47.2841 29.5017 47.0689 29.9162 46.6883 30.1104L45.2421 30.7396M33.8991 31.6202C26.1117 31.489 23.4608 31.6185 19.28 31.5425L33.8991 31.6202Z" stroke="#363636" stroke-width="1.2" stroke-linecap="round" stroke-linejoin="round"/>
<path d="M22.1655 31.0812C22.1655 31.0812 21.7735 29.6547 20.9893 26.8017L22.022 23.4949L28.5198 20C33.5155 20 37.6612 21.165 40.957 23.4949" stroke="#363636" stroke-width="1.2" stroke-linejoin="round"/>
<path d="M45.9108 24.2519V21.3979H44.5737" stroke="#363636" stroke-width="1.2" stroke-linecap="round" stroke-linejoin="round"/>
<path d="M33.8247 20.8018L34.8247 23.8018" stroke="#363636" stroke-width="1.2" stroke-linejoin="round"/>
<path d="M39.2334 33.2761C40.9161 33.2761 42.2802 31.933 42.2802 30.2761C42.2802 28.6193 40.9161 27.2761 39.2334 27.2761C37.5506 27.2761 36.1865 28.6193 36.1865 30.2761C36.1865 31.933 37.5506 33.2761 39.2334 33.2761Z" fill="white" stroke="#363636" stroke-width="1.2" stroke-linejoin="round"/>
<path d="M29.8247 26.8018H33.8247" stroke="#363636" stroke-width="1.2" stroke-linecap="round" stroke-linejoin="round"/>
<path d="M29.8247 28.8018H33.8247" stroke="#363636" stroke-width="1.2" stroke-linecap="round" stroke-linejoin="round"/>
</g>
<defs>
<clipPath id="clip0_790_282">
<rect width="55" height="55" fill="white"/>
</clipPath>
</defs>
</svg>