<svg xmlns="http://www.w3.org/2000/svg" width="52" height="52" viewBox="0 0 52 52" fill="none">
<g clip-path="url(#clip0_4335_299)">
<path d="M12.2469 29.8219C8.55221 29.7449 7.07095 29.5191 6.61816 29.4827C6.61816 28.7565 7.0258 27.6635 7.84108 26.2037C8.15556 25.6405 8.65258 25.2014 9.25017 24.9587C12.6469 23.5792 16.1125 22.741 19.6472 22.4441C23.4964 22.1209 29.8581 22.0439 38.7324 22.2133L44.0848 23.535L44.648 27.4925C44.7049 27.8924 44.5015 28.2843 44.1417 28.4679L42.7743 29.0628M32.0501 29.8954C24.6874 29.7713 22.1811 29.8938 18.2283 29.8219L32.0501 29.8954Z" stroke="#363636" stroke-width="1.2" stroke-linecap="round" stroke-linejoin="round"/>
<path d="M20.9569 29.386C20.9569 29.386 20.5861 28.0373 19.8447 25.3399L20.8211 22.2134L26.9645 18.9092C31.6877 18.9092 35.6073 20.0106 38.7233 22.2134" stroke="#363636" stroke-width="1.2" stroke-linejoin="round"/>
<path d="M43.4062 22.929V20.2307H42.1421" stroke="#363636" stroke-width="1.2" stroke-linecap="round" stroke-linejoin="round"/>
<path d="M31.9795 19.667L32.9249 22.5034" stroke="#363636" stroke-width="1.2" stroke-linejoin="round"/>
<path d="M15.3479 31.4611C16.9389 31.4611 18.2286 30.1912 18.2286 28.6247C18.2286 27.0582 16.9389 25.7883 15.3479 25.7883C13.757 25.7883 12.4673 27.0582 12.4673 28.6247C12.4673 30.1912 13.757 31.4611 15.3479 31.4611Z" stroke="#363636" stroke-width="1.2" stroke-linejoin="round"/>
<path d="M37.093 31.4611C38.684 31.4611 39.9737 30.1912 39.9737 28.6247C39.9737 27.0582 38.684 25.7883 37.093 25.7883C35.5021 25.7883 34.2124 27.0582 34.2124 28.6247C34.2124 30.1912 35.5021 31.4611 37.093 31.4611Z" stroke="#363636" stroke-width="1.2" stroke-linejoin="round"/>
<path d="M28.1978 25.3398H31.9796" stroke="#363636" stroke-width="1.2" stroke-linecap="round" stroke-linejoin="round"/>
<path d="M28.1978 27.2307H31.9796" stroke="#363636" stroke-width="1.2" stroke-linecap="round" stroke-linejoin="round"/>
<path d="M12.2469 29.8219C8.55221 29.7449 7.07095 29.5191 6.61816 29.4827C6.61816 28.7565 7.0258 27.6635 7.84108 26.2037C8.15556 25.6405 8.65258 25.2014 9.25017 24.9587C12.6469 23.5792 16.1125 22.741 19.6472 22.4441C23.4964 22.1209 29.8581 22.0439 38.7324 22.2133L44.0848 23.535L44.648 27.4925C44.7049 27.8924 44.5015 28.2843 44.1417 28.4679L42.7743 29.0628M32.0501 29.8954C24.6874 29.7713 22.1811 29.8938 18.2283 29.8219L32.0501 29.8954Z" stroke="#363636" stroke-width="1.2" stroke-linecap="round" stroke-linejoin="round"/>
<path d="M20.9569 29.386C20.9569 29.386 20.5861 28.0373 19.8447 25.3399L20.8211 22.2134L26.9645 18.9092C31.6877 18.9092 35.6073 20.0106 38.7233 22.2134" stroke="#363636" stroke-width="1.2" stroke-linejoin="round"/>
<path d="M43.4062 22.929V20.2307H42.1421" stroke="#363636" stroke-width="1.2" stroke-linecap="round" stroke-linejoin="round"/>
<path d="M31.9795 19.667L32.9249 22.5034" stroke="#363636" stroke-width="1.2" stroke-linejoin="round"/>
<path d="M37.093 31.4611C38.684 31.4611 39.9737 30.1912 39.9737 28.6247C39.9737 27.0582 38.684 25.7883 37.093 25.7883C35.5021 25.7883 34.2124 27.0582 34.2124 28.6247C34.2124 30.1912 35.5021 31.4611 37.093 31.4611Z" stroke="#363636" stroke-width="1.2" stroke-linejoin="round"/>
<path d="M28.1978 25.3398H31.9796" stroke="#363636" stroke-width="1.2" stroke-linecap="round" stroke-linejoin="round"/>
<path d="M28.1978 27.2307H31.9796" stroke="#363636" stroke-width="1.2" stroke-linecap="round" stroke-linejoin="round"/>
</g>
<defs>
<clipPath id="clip0_4335_299">
<rect width="52" height="52" fill="white"/>
</clipPath>
</defs>
</svg>